<?xml version="1.0" standalone="no"?><!DOCTYPE svg PUBLIC "-//W3C//DTD SVG 1.1//EN" "http://www.w3.org/Graphics/SVG/1.1/DTD/svg11.dtd"><svg class="icon" width="32px" height="32.00px" viewBox="0 0 1024 1024" version="1.1" xmlns="http://www.w3.org/2000/svg"><path d="M512.638031 662.739143c102.775758 0 186.400341-83.624583 186.400341-186.400341L699.038372 252.658394c0-16.949021-2.038426-32.438806-5.989411-46.473451-20.98801-82.387405-95.16543-139.927913-180.411953-139.927913s-159.423943 57.540508-180.174546 139.034567c-4.187369 14.927991-6.225795 30.417777-6.225795 47.366797l0 223.680409C326.237691 579.11456 409.862273 662.739143 512.638031 662.739143zM400.796804 252.658394c0-9.775644 1.164522-18.422581 3.367701-26.504654 0.146333-0.528026 0.181125-1.056052 0.327458-1.582031 12.541641-49.314149 57.030901-83.753519 108.145046-83.753519 51.113121 0 95.603405 34.43937 108.381429 84.644819 2.330068 8.264221 3.458775 17.165961 3.458775 27.196409l0 223.680409c0 61.671595-50.167586 111.840204-111.840204 111.840204s-111.840204-50.16861-111.840204-111.840204L400.796804 252.658394z" fill="#707070" /><path d="M848.158644 476.338802c0-20.587897-16.692171-37.280068-37.280068-37.280068s-37.281091 16.692171-37.281091 37.280068c0 143.895271-117.062136 260.9615-260.960477 260.9615-143.897318 0-260.9615-117.066229-260.9615-260.9615 0-20.587897-16.692171-37.280068-37.280068-37.280068s-37.280068 16.692171-37.280068 37.280068c0 172.383092 130.735553 314.695309 298.240545 333.318458l0 76.763314L363.516736 886.420575c-20.587897 0-37.280068 16.692171-37.280068 37.281091 0 20.586874 16.692171 37.280068 37.280068 37.280068l298.240545 0c20.588921 0 37.281091-16.693194 37.281091-37.280068 0-20.588921-16.692171-37.281091-37.281091-37.281091L549.9181 886.420575l0-76.763314C717.424114 791.034111 848.158644 648.721895 848.158644 476.338802z" fill="#707070" /></svg>