<?xml version="1.0" standalone="no"?><!DOCTYPE svg PUBLIC "-//W3C//DTD SVG 1.1//EN" "http://www.w3.org/Graphics/SVG/1.1/DTD/svg11.dtd"><svg class="icon" width="32px" height="32.00px" viewBox="0 0 1024 1024" version="1.1" xmlns="http://www.w3.org/2000/svg"><path d="M599.771429 892.342857V482.742857c0-9.752381 4.87619-19.504762 9.752381-29.257143L892.342857 97.52381H121.904762l292.571428 351.085714c9.752381 9.752381 9.752381 19.504762 9.752381 29.257143v321.828571l175.542858 92.647619z m97.523809-394.971428V975.238095c0 39.009524-39.009524 58.514286-73.142857 43.885715l-268.190476-146.285715c-14.628571-9.752381-24.380952-24.380952-24.380953-43.885714v-331.580952L48.761905 160.914286C14.628571 117.028571 19.504762 58.514286 58.514286 24.380952 78.019048 9.752381 97.52381 0 121.904762 0h770.438095c53.638095 0 97.52381 43.885714 97.52381 97.52381 0 24.380952-9.752381 43.885714-19.504762 63.390476l-273.066667 336.457143z" /></svg>