<?xml version="1.0" standalone="no"?><!DOCTYPE svg PUBLIC "-//W3C//DTD SVG 1.1//EN" "http://www.w3.org/Graphics/SVG/1.1/DTD/svg11.dtd"><svg class="icon" width="32px" height="32.00px" viewBox="0 0 1024 1024" version="1.1" xmlns="http://www.w3.org/2000/svg"><path d="M127.168 156.416l288 379.264v277.376c0 8.32 4.736 15.36 10.688 20.16l145.792 91.2a23.872 23.872 0 0 0 24.832 0 24.448 24.448 0 0 0 11.904-20.096V535.68l288-379.264 1.152-1.152a38.592 38.592 0 0 0 1.216-39.104 40.512 40.512 0 0 0-33.216-20.16H158.08a35.392 35.392 0 0 0-33.216 20.16 41.472 41.472 0 0 0 1.216 39.04l1.152 1.28z m718.208-12.992L565.76 514.368c-3.584 3.584-4.736 9.472-4.736 14.208v333.056L462.592 800V528.64c0-4.8-1.216-10.688-4.736-14.272l-280.96-370.944H845.44z" fill="#2c2c2c" /></svg>