<?xml version="1.0" standalone="no"?><!DOCTYPE svg PUBLIC "-//W3C//DTD SVG 1.1//EN" "http://www.w3.org/Graphics/SVG/1.1/DTD/svg11.dtd"><svg class="icon" width="32px" height="32.00px" viewBox="0 0 1024 1024" version="1.1" xmlns="http://www.w3.org/2000/svg"><path d="M518.912 208.896C463.616 208.896 420.608 225.792 389.888 259.584 359.168 291.84 344.576 334.848 344.576 388.608L405.248 388.608C405.248 350.976 413.696 321.792 430.592 300.288 449.024 274.944 477.44 262.656 515.84 262.656 548.096 262.656 573.44 271.104 591.104 289.536 608 306.432 617.216 330.24 617.216 360.96 617.216 382.464 609.536 402.432 594.176 421.632 589.568 427.776 580.352 436.992 568.064 449.28 526.592 486.144 501.248 515.328 490.496 538.368 481.28 557.568 476.672 579.84 476.672 605.184L476.672 622.848 538.112 622.848 538.112 605.184C538.112 584.448 542.72 566.016 552.704 549.12 560.384 535.296 571.904 521.472 588.8 506.88 622.592 476.928 643.328 456.96 651.008 447.744 670.208 422.4 680.192 392.448 680.192 357.888 680.192 311.808 665.6 275.712 637.184 249.6 607.232 221.952 568.064 208.896 518.912 208.896ZM507.392 676.608C494.336 676.608 483.584 680.448 474.368 689.664 465.152 698.112 461.312 708.864 461.312 721.92 461.312 734.976 465.152 745.728 474.368 754.944 483.584 763.392 494.336 768 507.392 768 520.448 768 531.2 763.392 540.416 754.944 549.632 746.496 554.24 735.744 554.24 721.92 554.24 708.864 549.632 698.112 541.184 689.664 531.968 680.448 520.448 676.608 507.392 676.608Z" fill="#2c2c2c" /><path d="M512 960C759.424 960 960 759.424 960 512 960 264.576 759.424 64 512 64 264.576 64 64 264.576 64 512 64 759.424 264.576 960 512 960ZM512 1024C229.248 1024 0 794.752 0 512 0 229.248 229.248 0 512 0 794.752 0 1024 229.248 1024 512 1024 794.752 794.752 1024 512 1024Z" fill="#2c2c2c" /></svg>