<?xml version="1.0" standalone="no"?><!DOCTYPE svg PUBLIC "-//W3C//DTD SVG 1.1//EN" "http://www.w3.org/Graphics/SVG/1.1/DTD/svg11.dtd"><svg class="icon" width="32px" height="32.00px" viewBox="0 0 1024 1024" version="1.1" xmlns="http://www.w3.org/2000/svg"><path d="M119.466667 226.133333h797.866666c12.8 0 21.333333-8.533333 21.333334-21.333333s-8.533333-21.333333-21.333334-21.333333H119.466667c-12.8 0-21.333333 8.533333-21.333334 21.333333s8.533333 21.333333 21.333334 21.333333zM913.066667 482.133333H119.466667c-12.8 0-21.333333 8.533333-21.333334 21.333334s8.533333 21.333333 21.333334 21.333333h797.866666c12.8 0 21.333333-8.533333 21.333334-21.333333s-12.8-21.333333-25.6-21.333334zM913.066667 780.8H119.466667c-12.8 0-21.333333 8.533333-21.333334 21.333333s8.533333 21.333333 21.333334 21.333334h797.866666c12.8 0 21.333333-8.533333 21.333334-21.333334s-12.8-21.333333-25.6-21.333333z" fill="#ffffff" /></svg>